{
 "asset": {
  "version": "2.0",
  "generator": "maz make_house_gltf.py"
 },
 "scene": 0,
 "scenes": [
  {
   "nodes": [
    0
   ]
  }
 ],
 "nodes": [
  {
   "mesh": 0,
   "name": "House"
  }
 ],
 "meshes": [
  {
   "name": "House",
   "primitives": [
    {
     "attributes": {
      "POSITION": 0,
      "NORMAL": 1,
      "COLOR_0": 2,
      "TEXCOORD_0": 3
     },
     "indices": 4,
     "material": 0,
     "mode": 4
    }
   ]
  }
 ],
 "materials": [
  {
   "name": "HouseDetail",
   "pbrMetallicRoughness": {
    "baseColorTexture": {
     "index": 0
    },
    "metallicFactor": 0.0,
    "roughnessFactor": 1.0
   }
  }
 ],
 "textures": [
  {
   "source": 0,
   "sampler": 0
  }
 ],
 "images": [
  {
   "bufferView": 5,
   "mimeType": "image/png"
  }
 ],
 "samplers": [
  {
   "magFilter": 9729,
   "minFilter": 9729,
   "wrapS": 10497,
   "wrapT": 10497
  }
 ],
 "buffers": [
  {
   "byteLength": 2628,
   "uri": "data:application/octet-stream;base64,"
  }
 ],
 "bufferViews": [
  {
   "buffer": 0,
   "byteOffset": 0,
   "byteLength": 504,
   "target": 34962
  },
  {
   "buffer": 0,
   "byteOffset": 504,
   "byteLength": 504,
   "target": 34962
  },
  {
   "buffer": 0,
   "byteOffset": 1008,
   "byteLength": 672,
   "target": 34962
  },
  {
   "buffer": 0,
   "byteOffset": 1680,
   "byteLength": 336,
   "target": 34962
  },
  {
   "buffer": 0,
   "byteOffset": 2016,
   "byteLength": 120,
   "target": 34963
  },
  {
   "buffer": 0,
   "byteOffset": 2136,
   "byteLength": 489
  }
 ],
 "accessors": [
  {
   "bufferView": 0,
   "componentType": 5126,
   "count": 42,
   "type": "VEC3",
   "min": [
    -1.15,
    0,
    -1.15
   ],
   "max": [
    1.15,
    2.1,
    1.15
   ]
  },
  {
   "bufferView": 1,
   "componentType": 5126,
   "count": 42,
   "type": "VEC3"
  },
  {
   "bufferView": 2,
   "componentType": 5126,
   "count": 42,
   "type": "VEC4"
  },
  {
   "bufferView": 3,
   "componentType": 5126,
   "count": 42,
   "type": "VEC2"
  },
  {
   "bufferView": 4,
   "componentType": 5123,
   "count": 60,
   "type": "SCALAR"
  }
 ]
}