{
 "asset": {
  "version": "2.0",
  "generator": "maz make_village_gltf.py"
 },
 "scene": 0,
 "scenes": [
  {
   "nodes": [
    0,
    1,
    2,
    3,
    4,
    5,
    6,
    7,
    8,
    9,
    10,
    11,
    12,
    13,
    14,
    15
   ]
  }
 ],
 "nodes": [
  {
   "mesh": 1,
   "name": "Ground",
   "matrix": [
    1.0,
    0,
    -0.0,
    0,
    0,
    1,
    0,
    0,
    0.0,
    0,
    1.0,
    0,
    0,
    0,
    0,
    1
   ]
  },
  {
   "mesh": 0,
   "name": "House0",
   "matrix": [
    0.9396926207859084,
    0,
    -0.3420201433256687,
    0,
    0,
    1,
    0,
    0,
    0.3420201433256687,
    0,
    0.9396926207859084,
    0,
    -8,
    0,
    -6,
    1
   ]
  },
  {
   "mesh": 0,
   "name": "House1",
   "matrix": [
    1.0,
    0,
    -0.0,
    0,
    0,
    1,
    0,
    0,
    0.0,
    0,
    1.0,
    0,
    0,
    0,
    -8,
    1
   ]
  },
  {
   "mesh": 0,
   "name": "House2",
   "matrix": [
    0.9396926207859084,
    0,
    0.3420201433256687,
    0,
    0,
    1,
    0,
    0,
    -0.3420201433256687,
    0,
    0.9396926207859084,
    0,
    8,
    0,
    -6,
    1
   ]
  },
  {
   "mesh": 0,
   "name": "House3",
   "matrix": [
    0.9063077870366499,
    0,
    0.42261826174069944,
    0,
    0,
    1,
    0,
    0,
    -0.42261826174069944,
    0,
    0.9063077870366499,
    0,
    -9,
    0,
    6,
    1
   ]
  },
  {
   "mesh": 0,
   "name": "House4",
   "matrix": [
    -0.9396926207859084,
    0,
    0.34202014332566866,
    0,
    0,
    1,
    0,
    0,
    -0.34202014332566866,
    0,
    -0.9396926207859084,
    0,
    2,
    0,
    8,
    1
   ]
  },
  {
   "mesh": 0,
   "name": "House5",
   "matrix": [
    -0.9396926207859083,
    0,
    -0.3420201433256689,
    0,
    0,
    1,
    0,
    0,
    0.3420201433256689,
    0,
    -0.9396926207859083,
    0,
    10,
    0,
    7,
    1
   ]
  },
  {
   "mesh": 2,
   "name": "Tree0",
   "matrix": [
    1.0,
    0,
    -0.0,
    0,
    0,
    1,
    0,
    0,
    0.0,
    0,
    1.0,
    0,
    -4,
    0,
    -2,
    1
   ]
  },
  {
   "mesh": 2,
   "name": "Tree1",
   "matrix": [
    1.0,
    0,
    -0.0,
    0,
    0,
    1,
    0,
    0,
    0.0,
    0,
    1.0,
    0,
    4,
    0,
    -3,
    1
   ]
  },
  {
   "mesh": 2,
   "name": "Tree2",
   "matrix": [
    1.0,
    0,
    -0.0,
    0,
    0,
    1,
    0,
    0,
    0.0,
    0,
    1.0,
    0,
    -3,
    0,
    3,
    1
   ]
  },
  {
   "mesh": 2,
   "name": "Tree3",
   "matrix": [
    1.0,
    0,
    -0.0,
    0,
    0,
    1,
    0,
    0,
    0.0,
    0,
    1.0,
    0,
    6,
    0,
    3,
    1
   ]
  },
  {
   "mesh": 2,
   "name": "Tree4",
   "matrix": [
    1.0,
    0,
    -0.0,
    0,
    0,
    1,
    0,
    0,
    0.0,
    0,
    1.0,
    0,
    -8,
    0,
    1,
    1
   ]
  },
  {
   "mesh": 2,
   "name": "Tree5",
   "matrix": [
    1.0,
    0,
    -0.0,
    0,
    0,
    1,
    0,
    0,
    0.0,
    0,
    1.0,
    0,
    9,
    0,
    -1,
    1
   ]
  },
  {
   "mesh": 2,
   "name": "Tree6",
   "matrix": [
    1.0,
    0,
    -0.0,
    0,
    0,
    1,
    0,
    0,
    0.0,
    0,
    1.0,
    0,
    0,
    0,
    5,
    1
   ]
  },
  {
   "mesh": 2,
   "name": "Tree7",
   "matrix": [
    1.0,
    0,
    -0.0,
    0,
    0,
    1,
    0,
    0,
    0.0,
    0,
    1.0,
    0,
    -6,
    0,
    -6,
    1
   ]
  },
  {
   "mesh": 2,
   "name": "Tree8",
   "matrix": [
    1.0,
    0,
    -0.0,
    0,
    0,
    1,
    0,
    0,
    0.0,
    0,
    1.0,
    0,
    7,
    0,
    6,
    1
   ]
  }
 ],
 "meshes": [
  {
   "primitives": [
    {
     "attributes": {
      "POSITION": 0,
      "NORMAL": 1,
      "COLOR_0": 2,
      "TEXCOORD_0": 3
     },
     "indices": 4,
     "mode": 4,
     "material": 0
    }
   ]
  },
  {
   "primitives": [
    {
     "attributes": {
      "POSITION": 5,
      "NORMAL": 6,
      "COLOR_0": 7,
      "TEXCOORD_0": 8
     },
     "indices": 9,
     "mode": 4
    }
   ]
  },
  {
   "primitives": [
    {
     "attributes": {
      "POSITION": 10,
      "NORMAL": 11,
      "COLOR_0": 12,
      "TEXCOORD_0": 13
     },
     "indices": 14,
     "mode": 4
    }
   ]
  }
 ],
 "materials": [
  {
   "name": "HouseDetail",
   "pbrMetallicRoughness": {
    "baseColorTexture": {
     "index": 0
    },
    "metallicFactor": 0.0,
    "roughnessFactor": 1.0
   }
  }
 ],
 "textures": [
  {
   "source": 0,
   "sampler": 0
  }
 ],
 "images": [
  {
   "bufferView": 15,
   "mimeType": "image/png"
  }
 ],
 "samplers": [
  {
   "magFilter": 9729,
   "minFilter": 9729,
   "wrapS": 10497,
   "wrapT": 10497
  }
 ],
 "buffers": [
  {
   "byteLength": 4845,
   "uri": "data:application/octet-stream;base64,"
  }
 ],
 "bufferViews": [
  {
   "buffer": 0,
   "byteOffset": 0,
   "byteLength": 504,
   "target": 34962
  },
  {
   "buffer": 0,
   "byteOffset": 504,
   "byteLength": 504,
   "target": 34962
  },
  {
   "buffer": 0,
   "byteOffset": 1008,
   "byteLength": 672,
   "target": 34962
  },
  {
   "buffer": 0,
   "byteOffset": 1680,
   "byteLength": 336,
   "target": 34962
  },
  {
   "buffer": 0,
   "byteOffset": 2016,
   "byteLength": 120,
   "target": 34963
  },
  {
   "buffer": 0,
   "byteOffset": 2136,
   "byteLength": 48,
   "target": 34962
  },
  {
   "buffer": 0,
   "byteOffset": 2184,
   "byteLength": 48,
   "target": 34962
  },
  {
   "buffer": 0,
   "byteOffset": 2232,
   "byteLength": 64,
   "target": 34962
  },
  {
   "buffer": 0,
   "byteOffset": 2296,
   "byteLength": 32,
   "target": 34962
  },
  {
   "buffer": 0,
   "byteOffset": 2328,
   "byteLength": 12,
   "target": 34963
  },
  {
   "buffer": 0,
   "byteOffset": 2340,
   "byteLength": 480,
   "target": 34962
  },
  {
   "buffer": 0,
   "byteOffset": 2820,
   "byteLength": 480,
   "target": 34962
  },
  {
   "buffer": 0,
   "byteOffset": 3300,
   "byteLength": 640,
   "target": 34962
  },
  {
   "buffer": 0,
   "byteOffset": 3940,
   "byteLength": 320,
   "target": 34962
  },
  {
   "buffer": 0,
   "byteOffset": 4260,
   "byteLength": 96,
   "target": 34963
  },
  {
   "buffer": 0,
   "byteOffset": 4356,
   "byteLength": 489
  }
 ],
 "accessors": [
  {
   "bufferView": 0,
   "componentType": 5126,
   "count": 42,
   "type": "VEC3",
   "min": [
    -1.15,
    0,
    -1.15
   ],
   "max": [
    1.15,
    2.1,
    1.15
   ]
  },
  {
   "bufferView": 1,
   "componentType": 5126,
   "count": 42,
   "type": "VEC3"
  },
  {
   "bufferView": 2,
   "componentType": 5126,
   "count": 42,
   "type": "VEC4"
  },
  {
   "bufferView": 3,
   "componentType": 5126,
   "count": 42,
   "type": "VEC2"
  },
  {
   "bufferView": 4,
   "componentType": 5123,
   "count": 60,
   "type": "SCALAR"
  },
  {
   "bufferView": 5,
   "componentType": 5126,
   "count": 4,
   "type": "VEC3",
   "min": [
    -40.0,
    0,
    -40.0
   ],
   "max": [
    40.0,
    0,
    40.0
   ]
  },
  {
   "bufferView": 6,
   "componentType": 5126,
   "count": 4,
   "type": "VEC3"
  },
  {
   "bufferView": 7,
   "componentType": 5126,
   "count": 4,
   "type": "VEC4"
  },
  {
   "bufferView": 8,
   "componentType": 5126,
   "count": 4,
   "type": "VEC2"
  },
  {
   "bufferView": 9,
   "componentType": 5123,
   "count": 6,
   "type": "SCALAR"
  },
  {
   "bufferView": 10,
   "componentType": 5126,
   "count": 40,
   "type": "VEC3",
   "min": [
    -0.9,
    0,
    -0.9
   ],
   "max": [
    0.9,
    2.7,
    0.9
   ]
  },
  {
   "bufferView": 11,
   "componentType": 5126,
   "count": 40,
   "type": "VEC3"
  },
  {
   "bufferView": 12,
   "componentType": 5126,
   "count": 40,
   "type": "VEC4"
  },
  {
   "bufferView": 13,
   "componentType": 5126,
   "count": 40,
   "type": "VEC2"
  },
  {
   "bufferView": 14,
   "componentType": 5123,
   "count": 48,
   "type": "SCALAR"
  }
 ]
}